HIERARCHY
ROOT Hips
{
	OFFSET 0.000000 0.000000 0.000000 
	CHANNELS 6 Xposition Yposition Zposition Zrotation Yrotation Xrotation
	JOINT LeftUpLeg
	{
		OFFSET 1.363060 -1.794630 0.839290 
		CHANNELS 3 Zrotation Yrotation Xrotation
		JOINT LeftLeg
		{
			OFFSET 2.448110 -6.726130 0.000000 
			CHANNELS 3 Zrotation Yrotation Xrotation
			JOINT LeftFoot
			{
				OFFSET 2.562200 -7.039590 0.000000 
				CHANNELS 3 Zrotation Yrotation Xrotation
				JOINT LeftToeBase
				{
					OFFSET 0.157640 -0.433110 2.322550 
					CHANNELS 3 Zrotation Yrotation Xrotation
					End Site
					{
						OFFSET 0.000000 0.000000 0.000000 
					}
				}
			}
		}
	}
	JOINT RightUpLeg
	{
		OFFSET -1.305520 -1.794630 0.839290 
		CHANNELS 3 Zrotation Yrotation Xrotation
		JOINT RightLeg
		{
			OFFSET -2.542530 -6.985550 0.000000 
			CHANNELS 3 Zrotation Yrotation Xrotation
			JOINT RightFoot
			{
				OFFSET -2.568260 -7.056230 0.000000 
				CHANNELS 3 Zrotation Yrotation Xrotation
				JOINT RightToeBase
				{
					OFFSET -0.164730 -0.452590 2.363150 
					CHANNELS 3 Zrotation Yrotation Xrotation
					End Site
					{
						OFFSET 0.000000 0.000000 0.000000 
					}
				}
			}
		}
	}
	JOINT Spine
	{
		OFFSET 0.028270 2.035590 -0.193380 
		CHANNELS 3 Zrotation Yrotation Xrotation
		JOINT Spine1
		{
			OFFSET 0.056720 2.048850 -0.042750 
			CHANNELS 3 Zrotation Yrotation Xrotation
			JOINT Neck1
			{
				OFFSET -0.054170 1.746240 0.172020 
				CHANNELS 3 Zrotation Yrotation Xrotation
				JOINT Head
				{
					OFFSET 0.104070 1.761360 -0.123970 
					CHANNELS 3 Zrotation Yrotation Xrotation
					End Site
					{
						OFFSET 0.000000 0.000000 0.000000 
					}
				}
			}
			JOINT LeftArm
			{
				OFFSET 3.362410 1.200890 -0.311210 
				CHANNELS 3 Zrotation Yrotation Xrotation
				JOINT LeftForeArm
				{
					OFFSET 4.983000 -0.000000 -0.000000 
					CHANNELS 3 Zrotation Yrotation Xrotation
					JOINT LeftHand
					{
						OFFSET 3.483560 -0.000000 -0.000000 
						CHANNELS 3 Zrotation Yrotation Xrotation
						JOINT LeftHandIndex1
						{
							OFFSET 0.715260 -0.000000 -0.000000 
							CHANNELS 3 Zrotation Yrotation Xrotation
							End Site
							{
								OFFSET 0.000000 0.000000 0.000000 
							}
						}
					}
				}
			}
			JOINT RightArm
			{
				OFFSET -3.136600 1.374050 -0.404650 
				CHANNELS 3 Zrotation Yrotation Xrotation
				JOINT RightForeArm
				{
					OFFSET -5.241900 -0.000000 -0.000000 
					CHANNELS 3 Zrotation Yrotation Xrotation
					JOINT RightHand
					{
						OFFSET -3.444170 -0.000000 -0.000000 
						CHANNELS 3 Zrotation Yrotation Xrotation
						JOINT RightHandIndex1
						{
							OFFSET -0.622530 -0.000000 -0.000000 
							CHANNELS 3 Zrotation Yrotation Xrotation
							End Site
							{
								OFFSET 0.000000 0.000000 0.000000 
							}
						}
					}
				}
			}
		}
	}
}
MOTION
Frames: 13
Frame Time: 0.041667
44.957442 17.955900 -4.040766 -178.068481 31.352087 -171.997304 -7.410012 3.701502 -34.443201 2.177581 13.666584 32.257421 -2.717590 15.192450 26.703088 0.575600 4.858600 13.505600 2.353841 -16.339429 -24.106504 -7.043082 -14.992739 47.872441 0.909579 -6.153632 5.728259 -0.319100 3.631000 -10.040700 -0.927275 3.824875 -1.607917 -4.432640 4.273119 -2.460660 -0.306768 8.154826 2.551717 -1.091400 2.875200 9.879700 -37.357698 -25.177593 40.964284 34.810451 -39.317163 -19.573976 -2.225287 -0.656148 -30.544058 -7.125000 0.000000 0.000000 41.583516 27.368282 36.016359 -43.096188 41.230067 -25.051448 1.851109 4.467403 -13.918271 7.125000 0.000000 0.000000 
45.071186 17.973720 -4.009755 -178.059760 31.093809 -171.715692 -7.098863 3.732018 -34.440001 2.113799 13.557261 31.923106 -2.600246 15.146966 27.184860 0.464200 4.370000 12.120100 1.732115 -14.653542 -23.882152 -6.336458 -14.520608 45.674265 0.586728 -5.556062 6.292695 -0.528000 4.656400 -12.931000 -0.890997 3.699087 -1.607580 -4.201645 4.152945 -2.374714 -0.267725 8.242927 2.565203 -0.989800 2.900700 9.923600 -36.854311 -25.784377 40.081045 35.202687 -39.382313 -19.930396 -2.245433 -0.633314 -30.688667 -7.125000 0.000000 0.000000 41.218359 26.991410 35.573717 -42.968502 41.195631 -25.061052 1.703258 4.467755 -13.352270 7.125000 0.000000 0.000000 
45.187939 17.983787 -3.967868 -178.246059 30.873885 -171.530936 -7.006071 3.846659 -34.607985 2.087902 13.493517 31.720060 -2.563291 15.219500 27.524681 0.333200 3.709900 10.261900 1.056878 -13.072336 -23.939169 -5.693137 -14.057930 43.744291 -0.248920 -3.869970 7.885854 -0.757400 5.558100 -15.507600 -0.856008 3.555365 -1.611658 -3.838169 4.015942 -2.241172 -0.166707 8.393268 2.632543 -0.823200 2.950800 10.040200 -36.569762 -26.281454 39.294914 35.444393 -39.398098 -20.174339 -2.302518 -0.575418 -30.831362 -7.125000 0.000000 0.000000 40.984587 26.682623 35.499867 -42.976619 41.247543 -25.153693 1.654721 4.511170 -13.445105 7.125000 0.000000 0.000000 
45.303304 17.983902 -3.915797 -178.493771 30.640643 -171.352438 -6.930335 3.891767 -34.818728 2.077289 13.442974 31.529701 -2.602111 15.421994 27.756444 0.285600 3.436900 9.497400 0.480887 -11.519947 -24.260031 -5.098794 -13.647933 42.093061 -1.294244 -1.692102 9.678871 -1.050800 6.518400 -18.296300 -0.808593 3.372463 -1.607502 -3.662078 3.873413 -2.331966 -0.628851 8.657827 2.387475 -1.392500 3.072800 9.723400 -36.157830 -26.295184 38.490116 35.863415 -39.595653 -20.660556 -2.369989 -0.606566 -31.306367 -7.125000 0.000000 0.000000 41.006788 26.321733 35.862293 -43.114216 41.434202 -25.311254 1.678760 4.556123 -13.983722 7.125000 0.000000 0.000000 
45.421908 17.981241 -3.857479 -178.748104 30.390584 -171.264753 -6.790751 3.888421 -34.879945 2.040613 13.358082 31.268811 -2.609637 15.563367 28.003075 0.289800 3.461600 9.566800 -0.033698 -10.153802 -24.546632 -4.580036 -13.321059 40.849924 -2.628501 1.289101 11.157909 -1.312900 7.257800 -20.481500 -0.788565 3.164523 -1.619579 -3.361091 3.724508 -2.209089 -0.512630 8.922193 2.490089 -1.182000 3.179900 9.855600 -35.715309 -26.237365 37.594136 36.320111 -39.782484 -21.199520 -2.407362 -0.628831 -31.839314 -7.125000 0.000000 0.000000 40.913532 26.025497 36.215544 -43.188339 41.537210 -25.377918 1.742479 4.564155 -14.228236 7.125000 0.000000 0.000000 
45.544100 17.996168 -3.793259 -179.212159 30.120210 -171.482292 -6.688001 3.731289 -34.652548 1.967529 13.255470 30.919833 -2.648716 15.788267 28.234415 0.240000 3.153000 8.705100 -0.713040 -8.488238 -24.379792 -4.212569 -13.139055 40.050297 -3.654290 3.709328 11.864684 -1.388800 7.456200 -21.074200 -0.790881 2.952329 -1.622088 -3.211292 3.620152 -2.161952 -0.454387 9.032409 2.481682 -1.086800 3.231700 9.856600 -35.325963 -26.198833 36.896965 36.581167 -39.883560 -21.557515 -2.472869 -0.603489 -32.410921 -7.125000 0.000000 0.000000 40.883157 25.726202 36.502533 -43.223650 41.627230 -25.423723 1.827524 4.565211 -14.502714 7.125000 0.000000 0.000000 
45.674738 18.024170 -3.720476 -179.410283 29.737449 -171.688441 -6.284824 3.467205 -34.198540 1.896347 13.116142 30.436237 -2.712558 16.137020 28.568245 0.204200 2.909400 8.026700 -1.038534 -6.517275 -23.967426 -4.018945 -13.185795 39.741947 -3.842404 4.157603 11.753100 -1.400500 7.486300 -21.164300 -0.783145 2.829601 -1.618186 -3.186726 3.561992 -2.178144 -0.487042 9.113321 2.407206 -1.101700 3.275800 9.770400 -35.144274 -25.969852 36.447990 36.978517 -40.100904 -22.028507 -2.563116 -0.628168 -33.142376 -7.125000 0.000000 0.000000 40.937933 25.436216 36.638116 -43.176014 41.676472 -25.416408 1.891476 4.559915 -14.666729 7.125000 0.000000 0.000000 
45.819725 18.042684 -3.637627 -179.264146 29.177027 -171.735113 -5.667937 3.344552 -33.768108 1.838006 12.934643 29.872787 -2.698147 16.431395 29.169370 0.187700 2.790200 7.695200 -0.795897 -5.120888 -23.804746 -3.948751 -13.381908 39.913814 -3.809751 4.153538 11.605578 -1.369200 7.405500 -20.922300 -0.755926 2.791752 -1.611824 -3.246471 3.532869 -2.208919 -0.580193 9.181363 2.324430 -1.188900 3.311800 9.676200 -35.173245 -25.589644 36.159372 37.561556 -40.438138 -22.650266 -2.616525 -0.719171 -33.607590 -7.125000 0.000000 0.000000 40.955942 25.153896 36.591210 -42.937594 41.621326 -25.250711 1.890707 4.534177 -14.394243 7.125000 0.000000 0.000000 
45.973390 18.041527 -3.547372 -179.391934 28.578014 -171.989746 -5.349484 3.344890 -33.458422 1.778010 12.775818 29.399277 -2.650588 16.668696 29.818353 0.127100 2.298200 6.330500 -0.511595 -4.425320 -23.836843 -3.982503 -13.616979 40.442909 -4.014264 4.828577 11.843128 -1.316600 7.267700 -20.511000 -0.755165 2.646112 -1.614595 -3.344082 3.487214 -2.250103 -0.594578 9.192997 2.289130 -1.182800 3.325100 9.624900 -35.097483 -24.965744 36.056786 38.185982 -40.815884 -23.327264 -2.642289 -0.839133 -33.822183 -7.125000 0.000000 0.000000 41.057239 24.886120 36.682416 -42.698041 41.569570 -25.053409 1.856786 4.516278 -14.079064 7.125000 0.000000 0.000000 
46.130873 18.029146 -3.449248 -179.768960 27.934135 -172.410160 -5.203474 3.263737 -33.177315 1.701934 12.652208 29.020795 -2.571122 16.783518 30.370640 0.070400 1.711400 4.708600 -0.297817 -4.027682 -23.873076 -4.066547 -13.856657 41.146540 -4.336789 5.890139 12.474941 -0.935500 6.160800 -17.251800 -0.759705 2.424934 -1.623337 -3.364256 3.413141 -2.277826 -0.511319 9.195166 2.313090 -1.051800 3.331800 9.625100 -35.325817 -24.319610 36.086552 38.620274 -41.118215 -23.821444 -2.680974 -0.931956 -33.997140 -7.125000 0.000000 0.000000 41.214029 24.561876 36.859395 -42.528093 41.566533 -24.922180 1.825551 4.518147 -13.781399 7.125000 0.000000 0.000000 
46.292060 18.018732 -3.343025 179.879297 27.156586 -172.798377 -4.932758 3.033641 -32.831318 1.588251 12.522411 28.641909 -2.353184 16.592308 30.969456 0.051700 1.466800 4.034300 0.001450 -3.759746 -23.796286 -4.184485 -14.086202 41.802171 -4.265711 5.878660 12.938604 -0.448300 4.295700 -11.910200 -0.745869 2.242974 -1.632573 -3.375074 3.344681 -2.339839 -0.467481 9.175655 2.324748 -0.985000 3.326100 9.606500 -36.045895 -23.828440 36.352412 38.843989 -41.337830 -24.054606 -2.775505 -1.019008 -34.516152 -7.125000 0.000000 0.000000 41.417748 24.131998 36.949540 -42.369733 41.584896 -24.834604 1.834354 4.508449 -13.535690 7.125000 0.000000 0.000000 
46.457412 18.016996 -3.229743 179.486207 26.278840 -173.233887 -4.593387 2.703272 -32.381335 1.436128 12.369906 28.193290 -2.049318 16.266923 31.690519 0.056800 1.537300 4.228600 0.316538 -3.499750 -23.450067 -4.339953 -14.287269 42.282635 -3.746032 4.544543 12.364078 -0.337200 3.731800 -10.323300 -0.729609 2.072264 -1.650485 -3.421264 3.289067 -2.496782 -0.523800 9.174018 2.345925 -1.053600 3.324800 9.596800 -36.602069 -23.108872 36.911322 39.445834 -41.755567 -24.613476 -2.872950 -1.228059 -35.706333 -7.125000 0.000000 0.000000 41.682091 23.620111 37.117770 -42.271938 41.642391 -24.789408 1.863467 4.480984 -13.544838 7.125000 0.000000 0.000000 
46.629243 18.028220 -3.108130 179.066934 25.272947 -173.765490 -4.257092 2.394781 -31.863603 1.259923 12.197018 27.705198 -1.657775 15.833512 32.604510 0.052300 1.475500 4.058100 0.589797 -3.161186 -22.806013 -4.432794 -14.416331 42.497737 -3.219170 3.180744 11.130418 -0.457100 4.337100 -12.027100 -0.708071 1.817576 -1.671684 -3.405541 3.195194 -2.678532 -0.579810 9.277577 2.416930 -1.130200 3.371400 9.642100 -36.785469 -22.056220 37.026450 40.160169 -42.202165 -25.403604 -2.827288 -1.475792 -35.665412 -7.125000 0.000000 0.000000 41.989731 23.118319 37.443438 -42.290434 41.755653 -24.814747 1.862242 4.466968 -13.755381 7.125000 0.000000 0.000000 
